<?xml version="1.0" encoding="utf-8"?>
<!-- Generator: Adobe Illustrator 22.1.0, SVG Export Plug-In . SVG Version: 6.00 Build 0)  -->
<svg version="1.1" id="分離模式" xmlns="http://www.w3.org/2000/svg" xmlns:xlink="http://www.w3.org/1999/xlink" x="0px"
	 y="0px" viewBox="0 0 1417.3 1417.3" style="enable-background:new 0 0 1417.3 1417.3;" xml:space="preserve">
<style type="text/css">
	.st0{fill:#FFFFFF;}
	.st1{display:none;fill:none;stroke:#F8C7CB;stroke-width:30;stroke-miterlimit:10;}
	.st2{fill:#444444;}
</style>
<circle class="st0" cx="708.7" cy="708.7" r="708.7"/>
<circle class="st1" cx="708.7" cy="708.7" r="654.3"/>
<path class="st2" d="M1150.6,1045.6L942.4,837.5c40.4-63.6,63.7-138.9,63.7-219.6c0-226.7-184.4-411.1-411.1-411.1
	S184,391.2,184,617.9S368.4,1029,595.1,1029c76.7,0,148.6-21.1,210-57.8l210,210C1104.8,1270.7,1240.3,1135.3,1150.6,1045.6z
	 M311.4,617.9c0-156.4,127.3-283.6,283.6-283.6s283.6,127.2,283.6,283.6S751.5,901.5,595.1,901.5S311.4,774.3,311.4,617.9z
	 M395.5,544.1c83-192.3,362.3-170.1,415,31.3C704.5,451.1,518,437.7,395.5,544.1z"/>
</svg>
