<?xml version="1.0" encoding="utf-8"?>
<!-- Generator: Adobe Illustrator 22.1.0, SVG Export Plug-In . SVG Version: 6.00 Build 0)  -->
<svg version="1.1" id="分離模式" xmlns="http://www.w3.org/2000/svg" xmlns:xlink="http://www.w3.org/1999/xlink" x="0px"
	 y="0px" viewBox="0 0 1417.3 1417.3" style="enable-background:new 0 0 1417.3 1417.3;" xml:space="preserve">
<style type="text/css">
	.st0{fill:#61B6CD;}
	.st1{fill:#FFFFFF;}
</style>
<circle class="st0" cx="708.7" cy="708.3" r="708.3"/>
<path class="st1" d="M1019.7,474.3c0,185-166.6,310.2-166.6,456.2H564.2c0-146-166.6-271.2-166.6-456.2
	c0-193,155.4-299.2,310.9-299.2C864.1,175,1019.7,281.4,1019.7,474.3z M819.7,974.9H597.6c-12.3,0-22.2,10-22.2,22.2
	s10,22.2,22.2,22.2h222.2c12.3,0,22.2-10,22.2-22.2S832,974.9,819.7,974.9z M819.7,1063.8H597.6c-12.3,0-22.2,10-22.2,22.2
	c0,12.3,10,22.2,22.2,22.2h222.2c12.3,0,22.2-10,22.2-22.2C842,1073.8,832,1063.8,819.7,1063.8z M830.9,1152.7H586.4l64.5,73.7
	c8.4,9.6,20.7,15.2,33.5,15.2H733c12.8,0,25-5.6,33.4-15.2C766.4,1226.4,830.9,1152.7,830.9,1152.7z"/>
</svg>
