<?xml version="1.0" encoding="utf-8"?>
<!-- Generator: Adobe Illustrator 22.1.0, SVG Export Plug-In . SVG Version: 6.00 Build 0)  -->
<svg version="1.1" id="分離模式" xmlns="http://www.w3.org/2000/svg" xmlns:xlink="http://www.w3.org/1999/xlink" x="0px"
	 y="0px" viewBox="0 0 1417.3 1417.3" style="enable-background:new 0 0 1417.3 1417.3;" xml:space="preserve">
<style type="text/css">
	.st0{fill:#FFFFFF;}
	.st1{display:none;fill:none;stroke:#F8C7CB;stroke-width:30;stroke-miterlimit:10;}
	.st2{fill:#444444;}
</style>
<circle class="st0" cx="708.7" cy="708.7" r="708.7"/>
<circle class="st1" cx="708.7" cy="708.7" r="654.3"/>
<path class="st2" d="M1018.9,242.7c0-51.4-41.8-93.2-93.2-93.2h-466c-51.4,0-93.2,41.8-93.2,93.2v932.1c0,51.4,41.8,93.2,93.2,93.2
	h466c51.4,0,93.2-41.8,93.2-93.2V242.7z M622.7,242.7h139.8c12.9,0,23.3,10.4,23.3,23.3s-10.4,23.3-23.3,23.3H622.7
	c-12.9,0-23.3-10.4-23.3-23.3S609.9,242.7,622.7,242.7z M692.7,1174.7c-25.8,0-46.6-20.9-46.6-46.6s20.8-46.6,46.6-46.6
	c25.7,0,46.6,20.9,46.6,46.6S718.4,1174.7,692.7,1174.7z M925.7,1034.9h-466V381.4h466V1034.9z"/>
</svg>
