<?xml version="1.0" encoding="utf-8"?>
<!-- Generator: Adobe Illustrator 22.1.0, SVG Export Plug-In . SVG Version: 6.00 Build 0)  -->
<svg version="1.1" id="分離模式" xmlns="http://www.w3.org/2000/svg" xmlns:xlink="http://www.w3.org/1999/xlink" x="0px"
	 y="0px" viewBox="0 0 1417.3 1417.3" style="enable-background:new 0 0 1417.3 1417.3;" xml:space="preserve">
<style type="text/css">
	.st0{fill:#FFFFFF;}
	.st1{display:none;fill:none;stroke:#F8C7CB;stroke-width:30;stroke-miterlimit:10;}
	.st2{fill:#444444;}
</style>
<circle class="st0" cx="708.7" cy="708.7" r="708.7"/>
<circle class="st1" cx="708.7" cy="708.7" r="654.3"/>
<path class="st2" d="M1204.9,786.2V651.8c-68.7-24.4-112.1-31.3-133.9-84v0c-21.9-52.9,4.2-88.8,35.2-154.2l-95.1-95.1
	c-64.9,30.9-101.2,57.2-154.2,35.2h0c-52.8-21.9-59.7-65.6-84-133.9H638.4c-24.2,68-31.2,112-84,133.9h0
	c-52.9,22-88.7-4.1-154.2-35.2l-95.1,95.1c31,65.2,57.2,101.3,35.2,154.2c-21.9,52.9-65.9,59.8-133.9,84v134.5
	c67.9,24.1,112,31.2,133.9,84c22,53.3-4.7,90.1-35.2,154.2l95.1,95.1c65-30.9,101.3-57.2,154.2-35.2h0c52.8,21.9,59.7,65.7,84,133.9
	h134.5c24.2-68.1,31.2-111.9,84.3-134h0c52.5-21.8,88.2,4.2,153.8,35.4l95.1-95.1c-31-65-57.2-101.2-35.3-154.2
	C1092.8,817.4,1136.9,810.4,1204.9,786.2z M705.7,885.4c-91.9,0-166.4-74.5-166.4-166.4s74.5-166.4,166.4-166.4
	S872.1,627.1,872.1,719S797.6,885.4,705.7,885.4z"/>
</svg>
